<?xml version="1.0" standalone="no"?>
<!DOCTYPE svg PUBLIC "-//W3C//DTD SVG 20010904//EN"
 "http://www.w3.org/TR/2001/REC-SVG-20010904/DTD/svg10.dtd">
<svg version="1.0" xmlns="http://www.w3.org/2000/svg"
 width="700.000000pt" height="700.000000pt" viewBox="0 0 700.000000 700.000000"
 preserveAspectRatio="xMidYMid meet">
<metadata>
Created by potrace 1.14, written by Peter Selinger 2001-2017
</metadata>
<g transform="translate(0.000000,700.000000) scale(0.100000,-0.100000)"
fill="#000000" stroke="none">
<path d="M0 3500 l0 -3500 3500 0 3500 0 0 3500 0 3500 -3500 0 -3500 0 0
-3500z m5305 3060 c695 -136 1231 -660 1395 -1365 56 -240 71 -565 36 -770
-84 -496 -331 -956 -802 -1490 -119 -136 -475 -490 -669 -666 -88 -80 -338
-301 -555 -491 -217 -190 -457 -404 -533 -475 -335 -316 -535 -568 -622 -784
l-32 -78 -12 42 c-21 70 -86 202 -144 289 -177 272 -441 537 -1122 1129 -369
319 -440 384 -662 592 -660 620 -1041 1162 -1209 1719 -115 385 -118 809 -8
1161 193 612 721 1056 1409 1184 114 21 372 28 491 14 355 -43 651 -185 878
-421 131 -137 224 -284 303 -479 9 -23 13 -20 67 65 297 456 716 746 1196 828
142 24 152 25 325 21 110 -3 195 -11 270 -25z"/>
<path d="M2837 5718 c-73 -172 -111 -321 -111 -433 0 -96 19 -144 72 -177 82
-51 243 -16 284 62 51 98 -8 297 -158 528 -29 45 -55 82 -57 82 -2 0 -16 -28
-30 -62z"/>
<path d="M4145 5711 c-193 -297 -237 -518 -119 -591 50 -31 139 -45 193 -30
97 26 133 114 112 267 -13 91 -73 289 -114 378 l-24 50 -48 -74z"/>
<path d="M5154 4894 c-225 -220 -299 -375 -226 -473 25 -35 107 -79 160 -87
105 -16 168 40 198 173 14 62 16 108 11 257 -3 99 -10 196 -14 215 l-8 33
-121 -118z"/>
<path d="M1670 4773 c1 -423 119 -587 331 -460 94 57 116 136 66 238 -45 92
-181 227 -344 344 l-53 37 0 -159z"/>
<path d="M2912 4894 c-132 -66 -211 -242 -199 -449 9 -167 63 -300 162 -401
126 -128 278 -138 394 -25 94 91 137 227 129 404 -11 219 -117 408 -269 477
-65 29 -151 27 -217 -6z"/>
<path d="M3924 4896 c-152 -71 -264 -287 -264 -510 0 -305 190 -506 402 -426
276 104 385 607 184 853 -84 103 -209 136 -322 83z"/>
<path d="M2093 4145 c-244 -123 -232 -586 22 -841 99 -99 162 -129 276 -129
82 0 89 2 135 34 103 71 146 161 152 321 5 132 -13 212 -74 338 -56 116 -155
222 -249 268 -87 42 -189 46 -262 9z"/>
<path d="M4773 4160 c-67 -14 -124 -49 -194 -119 -182 -182 -241 -504 -133
-721 135 -270 457 -215 614 105 114 231 102 499 -30 649 -62 70 -166 105 -257
86z"/>
<path d="M3439 3767 c-130 -37 -244 -147 -324 -311 -49 -101 -95 -243 -95
-294 0 -16 -14 -24 -67 -41 -169 -51 -341 -156 -468 -285 -148 -151 -199 -257
-199 -421 -1 -93 1 -105 31 -168 62 -131 194 -228 379 -278 64 -18 108 -22
234 -23 206 -1 345 29 531 115 l68 32 93 -41 c389 -171 822 -140 1036 74 82
82 114 151 120 257 9 151 -37 270 -162 420 -45 54 -166 152 -251 203 -62 38
-214 105 -282 124 -39 12 -41 15 -48 59 -4 25 -18 82 -32 126 -67 212 -189
370 -336 435 -59 26 -167 34 -228 17z"/>
</g>
</svg>
